<svg xmlns="http://www.w3.org/2000/svg" width="24" height="24" viewBox="0 0 32 32">
  <path fill="#F2C811" d="M5.1 16.2c-1.2-1-1.2-4 0-5.1 1.2-1.1 14 4.3 14 5.6 0 1.2-12.9 6.6-14 5.5z" />
  <path fill="#F2C811" d="M27.2 22.2c0 1.2-1 2.2-2.3 2.2H8.2c-1.2 0-2.3-1-2.3-2.2V10.2c0-1.2 1-2.2 2.3-2.2h16.7c1.2 0 2.3 1 2.3 2.2v12z"/>
  <path fill="#F2C811" d="M24.9 19.2c0 1.2-1 2.2-2.3 2.2h-6.3c-1.2 0-2.3-1-2.3-2.2v-6c0-1.2 1-2.2 2.3-2.2h6.3c1.2 0 2.3 1 2.3 2.2v6"/>
  <path fill="#F2C811" d="M21.8 16.2c0 1.2-1 2.2-2.3 2.2h-3.3c-1.2 0-2.3-1-2.3-2.2 0-1.2 1-2.2 2.3-2.2h3.3c1.3 0 2.3 1 2.3 2.2"/>
</svg>
